<svg xmlns="http://www.w3.org/2000/svg" viewBox="0 0 500 500"><g id="freepik--background-simple--inject-2"><path d="M452.94,163.51s-70.94-121.78-170-142C195.44,3.66,110.08,39.36,91.39,129.73c-6.66,32.19-16.76,67.59-32,96.24-17.07,32.12-43.89,57.87-30.14,123.34s88.75,129.57,146.63,134,116.43-43.78,165.08-88S536,317.48,452.94,163.51Z" style="fill:#BA68C8"></path><path d="M452.94,163.51s-70.94-121.78-170-142C195.44,3.66,110.08,39.36,91.39,129.73c-6.66,32.19-16.76,67.59-32,96.24-17.07,32.12-43.89,57.87-30.14,123.34s88.75,129.57,146.63,134,116.43-43.78,165.08-88S536,317.48,452.94,163.51Z" style="fill:#fff;opacity:0.7000000000000001"></path></g><g id="freepik--Character--inject-2"><path d="M222,71.78s-31.84,24.38-35.07,36.56,1.24,33.58,0,37.81-21.14,16.16-21.39,33.32S173,213.55,234.93,221s85.55-27.61,85.55-46.51-15.91-30.84-18.65-39.79,8.71-25.12-7.71-45S234.93,50.64,222,71.78Z" style="fill:#263238;stroke:#263238;stroke-linejoin:round"></path><path d="M360.14,292.66s5.75,49.39,6.95,62.57-1.92,20.86-11.27,25.66-14.38,7.91-24-1.92-2.88-28.77-3.36-36.21-7.19-36-7.19-36Z" style="fill:#fff;stroke:#263238;stroke-linejoin:round"></path><polygon points="361.27 306.51 324.89 318.65 321.3 306.8 360.14 292.65 361.27 306.51" style="fill:#263238;stroke:#263238;stroke-linejoin:round"></polygon><path d="M338.08,339.89s16.78-4.32,24.69,11.27" style="fill:#fff;stroke:#263238;stroke-linejoin:round"></path><path d="M303.84,356.42l9.64-56.27,46.74-12.85s-1.69-38.56-11.81-53.6-36.38-23.52-53-28.86-32.29-8.49-32.29-8.49-29.88-4.12-43.13,3.16c0,0-45.3,19.88-53.25,23.76s-16.86,8.25-20.24,26.92-5.06,35.41-5.06,35.41l31.08,15.52,9.4,55.3-2,15.65L145.15,441.5H341.41L306.11,371Z" style="fill:#ababab;stroke:#263238;stroke-linejoin:round"></path><circle cx="253.45" cy="282.75" r="1.92" style="fill:none;stroke:#263238;stroke-linejoin:round"></circle><circle cx="253.45" cy="312.13" r="1.92" style="fill:none;stroke:#263238;stroke-linejoin:round"></circle><circle cx="253.45" cy="341.5" r="1.92" style="fill:none;stroke:#263238;stroke-linejoin:round"></circle><path d="M255.37,370.87a1.92,1.92,0,1,1-1.92-1.92A1.92,1.92,0,0,1,255.37,370.87Z" style="fill:none;stroke:#263238;stroke-linejoin:round"></path><circle cx="253.45" cy="400.24" r="1.92" style="fill:none;stroke:#263238;stroke-linejoin:round"></circle><path d="M255.37,429.62a1.92,1.92,0,1,1-1.92-1.92A1.92,1.92,0,0,1,255.37,429.62Z" style="fill:none;stroke:#263238;stroke-linejoin:round"></path><line x1="246.47" y1="271.78" x2="246.47" y2="419.58" style="fill:none;stroke:#263238;stroke-linejoin:round"></line><polyline points="314.03 281.43 311.5 296.27 320.79 280.46" style="fill:none;stroke:#263238;stroke-linejoin:round"></polyline><polyline points="175.62 281.43 178.15 296.27 168.86 280.46" style="fill:none;stroke:#263238;stroke-linejoin:round"></polyline><path d="M205.42,242.67s-6.15,10.1-3.07,9.22,20.2-12.29,20.2-12.29-6.59,10.1-1.32,13.61S248,266.91,248,266.91s25.49-10.18,25.93-14.14-.88-5.71-.88-7.9-2.64-4.83,2.64-3.08,24.59,12.3,23.27,9.67-22.7-45-25.62-46.44-42.45-2.76-49.48,1.2S205.42,242.67,205.42,242.67Z" style="fill:#263238;stroke:#263238;stroke-linejoin:round"></path><polygon points="135.47 272.94 131.78 290.84 175.49 312.32 179.75 297.1 135.47 272.94" style="fill:#ababab;stroke:#263238;stroke-linejoin:round"></polygon><polygon points="311.5 296.27 315.59 312.04 367.4 296.52 360.41 277.84 311.5 296.27" style="fill:#ababab;stroke:#263238;stroke-linejoin:round"></polygon><path d="M223.32,187.18s-11.2,13.58-12.4,15.75-10.09,37.51-13.71,44.5,1.93,4.81,5.78.48,20-14,19.52-11.09-4.82,9.88-2.17,11.33,24.34,19.52,26.26,19.52,29.4-17.59,30.36-20-5.3-12-2.16-11.57,26,21.45,28.67,19.76-12.05-35.9-19-51.32a30.47,30.47,0,0,0-24.84-18.31C255.74,186,223.32,187.18,223.32,187.18Z" style="fill:#ababab;stroke:#263238;stroke-linejoin:round"></path><path d="M224,181.89s-4.34,19.52-4.34,24.82,23.82,67.18,28.39,60.2,25.34-58,25.34-61.89-1.93-24.58-1.93-24.58-16.86,11.33-24.09,12.05S224,181.89,224,181.89Z" style="fill:#fff;stroke:#263238;stroke-linejoin:round"></path><path d="M222.7,184.77S216,211,223.12,213s47.8-25.69,47.8-25.69Z" style="fill:#263238;stroke:#263238;stroke-linejoin:round"></path><path d="M229,100.88a95.85,95.85,0,0,1-7.46,23.63c-5.47,11.19-16.42,20.14-16.42,20.14s-1.74,5.47.5,9a14.5,14.5,0,0,0,5.47,5s5.72,17.16,8,21.39,18.41,20.64,22.63,22.38,12.44,1.5,15.92-.49S274.22,184.7,276,180.22s6-22.63,6-22.63,3.24-1,5.23-6a37.54,37.54,0,0,0,2.24-10.7s-6.72-1.24-16.92-4-12.18-4.47-12.18-4.47-8.21.25-18.41-7.22S229,100.88,229,100.88Z" style="fill:#fff;stroke:#263238;stroke-linejoin:round"></path><path d="M238.66,104.86s1,13.43,7.46,18.65,10.45,4.23,10.45,4.23S243.88,116.55,238.66,104.86Z" style="fill:#fff;stroke:#263238;stroke-linejoin:round"></path><path d="M224,151.62a15.48,15.48,0,0,0,14.17.25" style="fill:none;stroke:#263238;stroke-linejoin:round;stroke-width:2px"></path><path d="M256.82,151.62a15.48,15.48,0,0,0,14.17.25" style="fill:none;stroke:#263238;stroke-linejoin:round;stroke-width:2px"></path><path d="M238.16,140.43s-7.46-3.74-15.67,3" style="fill:none;stroke:#263238;stroke-linejoin:round"></path><path d="M257.06,140.43s7.46-3.74,15.67,3" style="fill:none;stroke:#263238;stroke-linejoin:round"></path><path d="M241.64,171.76s2.24,3,5.23,3.24,6-.5,7.46-2.49" style="fill:none;stroke:#263238;stroke-linejoin:round"></path><path d="M236.67,180.72s6,4,11.69,3.48,11.19-4.48,11.19-4.48" style="fill:none;stroke:#263238;stroke-linejoin:round"></path><path d="M344.79,346.6s-5.27-8.39-7.67-11.51-7.67-4.55-14.39-11.75-9.35-.24-7.19,4.56,7.91,8.63,10.55,10.31,4.8,6.23,4.8,8.39-1.44,7.19-1.44,7.19a101.53,101.53,0,0,0-7.1-8.08c-5.85-6.3-10.16-11.34-11.36-6.06s1,7.91,5,11.51,8.39,8.15,8.87,9.11,1.92,8.39,4.08,9.83,4.79,2.39,4.79,3.59-1.91,5.52,2.64,10.79,10.07,4.56,13-3.12,2.63-21.57-.24-28.29S344.79,346.6,344.79,346.6Z" style="fill:#fff;stroke:#263238;stroke-linejoin:round"></path><path d="M342.63,344.44s-6.23,6.24-13.18,9.35-11.51,4.56-12,7.2.24,5,5.75,4.55,22.3-7,25.18-10.55S349.59,340.61,342.63,344.44Z" style="fill:#fff;stroke:#263238;stroke-linejoin:round"></path><path d="M351.09,367.62s1.13,2.72-3.9,7.27-14.87,9.59-18.94,10.55-7.43-1-4.8-3.6,10.31-8.15,10.31-8.15A93.16,93.16,0,0,0,351.09,367.62Z" style="fill:#fff;stroke:#263238;stroke-linejoin:round"></path><path d="M348.39,355s4.07-1.68,5.27,6.71-15.82,12.71-22.53,13.19-11.27-2.16-10.31-4.31,1.91-2.4,10.07-5.76S348.39,355,348.39,355Z" style="fill:#fff;stroke:#263238;stroke-linejoin:round"></path><path d="M138.59,278s-11.08,4.09-7.47,14.69,5.06,13.5,6.27,20-3.13,11.33-7.23,35.18,10.12,28.91,17.35,33.25,18.07-20,19.27-27.23-7.47-28.67-9.15-40.23-4.1-18.08,1.44-26-3.61-10.6-6.5-12.28S138.59,278,138.59,278Z" style="fill:#fff;stroke:#263238;stroke-linejoin:round"></path><path d="M145.58,311.76c7.95,0,13.25-7.71,13.25-7.71a15,15,0,0,0,6.62-4.34c2.53-3.13,2.54-8.91,2.54-8.91s6.06-8.69,10.6-11.33,7.71-4.34,9.16-8.91-.73-7-6.51-2.17-8.43,5.78-8.43,5.78l-20,4.1" style="fill:#fff;stroke:#263238;stroke-linejoin:round"></path><rect x="159.07" y="278.77" width="30.62" height="54.41" transform="translate(-111.23 99.93) rotate(-24.51)" style="fill:#fff;stroke:#263238;stroke-linejoin:round"></rect><line x1="165.32" y1="284.68" x2="184.22" y2="326.12" style="fill:#fff;stroke:#263238;stroke-linejoin:round"></line><path d="M159.22,299h0a2.28,2.28,0,0,0,3-1.11l2.85-6.12a2.3,2.3,0,0,0-1.12-3h0a2.3,2.3,0,0,0-3,1.11L158.11,296A2.29,2.29,0,0,0,159.22,299Z" style="fill:#263238;stroke:#263238;stroke-linejoin:round"></path><path d="M163.72,308.87h0a2.29,2.29,0,0,0,3-1.11l2.84-6.12a2.28,2.28,0,0,0-1.11-3h0a2.29,2.29,0,0,0-3,1.11l-2.84,6.12A2.29,2.29,0,0,0,163.72,308.87Z" style="fill:#263238;stroke:#263238;stroke-linejoin:round"></path><path d="M168.22,318.73h0a2.28,2.28,0,0,0,3-1.11l2.84-6.12a2.28,2.28,0,0,0-1.11-3h0a2.29,2.29,0,0,0-3,1.11l-2.84,6.12A2.29,2.29,0,0,0,168.22,318.73Z" style="fill:#263238;stroke:#263238;stroke-linejoin:round"></path><path d="M172.72,328.6h0a2.29,2.29,0,0,0,3-1.11l2.84-6.12a2.29,2.29,0,0,0-1.11-3h0a2.29,2.29,0,0,0-3,1.11l-2.84,6.12A2.28,2.28,0,0,0,172.72,328.6Z" style="fill:#263238;stroke:#263238;stroke-linejoin:round"></path><path d="M172.17,293.1h0a2.29,2.29,0,0,0,3-1.11l2.84-6.12a2.29,2.29,0,0,0-1.11-3h0a2.29,2.29,0,0,0-3,1.11l-2.85,6.12A2.29,2.29,0,0,0,172.17,293.1Z" style="fill:#263238;stroke:#263238;stroke-linejoin:round"></path><path d="M176.66,303h0a2.29,2.29,0,0,0,3-1.12l2.85-6.11a2.29,2.29,0,0,0-1.11-3h0a2.29,2.29,0,0,0-3.05,1.11l-2.84,6.12A2.3,2.3,0,0,0,176.66,303Z" style="fill:#263238;stroke:#263238;stroke-linejoin:round"></path><path d="M181.16,312.83h0a2.29,2.29,0,0,0,3-1.11l2.85-6.12a2.29,2.29,0,0,0-1.12-3h0a2.3,2.3,0,0,0-3,1.11l-2.84,6.12A2.29,2.29,0,0,0,181.16,312.83Z" style="fill:#263238;stroke:#263238;stroke-linejoin:round"></path><path d="M185.66,322.7h0a2.29,2.29,0,0,0,3-1.11l2.84-6.12a2.28,2.28,0,0,0-1.11-3h0a2.28,2.28,0,0,0-3,1.11l-2.84,6.12A2.29,2.29,0,0,0,185.66,322.7Z" style="fill:#263238;stroke:#263238;stroke-linejoin:round"></path><path d="M154.74,269.59s6.5-6.74,9.87-5.54,12,10.12,12.29,12.29,3.38,9.16,2.17,9.64-9.15-4.58-12.53-8S154.74,269.59,154.74,269.59Z" style="fill:#fff;stroke:#263238;stroke-linejoin:round"></path><path d="M141.73,279s5.3-11.57,8.91-11.57,16.63,5.79,18.31,8.2,9.4,9.88,7.47,10.84-6-1-8.91-3.13a52.22,52.22,0,0,0-4.58-3.14l-8.19-2.41" style="fill:#fff;stroke:#263238;stroke-linejoin:round"></path><path d="M133.29,283.33s5.3-11.57,8.92-11.57,16.62,5.78,18.31,8.19,9.4,9.88,7.47,10.85-6-1-8.92-3.14a52.32,52.32,0,0,0-4.57-3.13l-8.2-2.41" style="fill:#fff;stroke:#263238;stroke-linejoin:round"></path><path d="M131.12,288.63s-2.65-5.79,0-7,19.76-5.3,21.45-6.26,4.82.48,1,4.81-15.18,7-16.38,7.23" style="fill:#fff;stroke:#263238;stroke-linejoin:round"></path></g><g id="freepik--Scissors--inject-2"><path d="M98.09,205.12l-13.55,9.3s-7.13,4.11-10.82,10.73l-14.91,40s-1.74,2.13-3.61,1.59a29.71,29.71,0,0,1-3.53-1.27A8.41,8.41,0,0,0,45,265c-3.29,1.37-6.12,4.21-6.84,9.43s1,9.3,4.46,10.77,6.67,1.24,9.61-1.09,5.34-7.52,6-9.28c.46-1.27,1.12-3.17,1.44-4.13l12.09-30.35,2.19-.72S81.19,226,84.4,223.59s12.53-9.53,14-12S98.09,205.12,98.09,205.12ZM51.83,282.53c-1.44,1.4-4.8,2.47-8.65.85s-4.4-6.26-3.86-9.21,3.75-7.81,6.93-7.72,6.72,1.26,8.25,4.14.26,7,.26,7C53.78,280,53.27,281.12,51.83,282.53Z" style="fill:#fff;stroke:#000;stroke-linejoin:round"></path><path d="M84,273.63c-2.61-2.32-7.77-1.92-7.77-1.92A2.44,2.44,0,0,1,73.94,269c.21-2.48,6.68-40.89,6.68-40.89l1-5L94.35,199l1.72-4.5s-.74-.66-1.15-.61l-3.07,3.32S74.9,218.88,74.51,220.51s-.79,4.64-.79,4.64l-1.93,13s3.4,2.6,3.47,4.3c.07,1.54-5,33.41-6,39.78a7.16,7.16,0,0,0-.18,1.1c-.19,3.28,1.52,8.91,6.38,8.8s8.27-2.73,10.28-7.22S86.6,276,84,273.63Zm.33,11c-1.62,3.62-4.38,5.72-8.32,5.81s-5.34-4.47-5.19-7.11a11,11,0,0,1,3.81-7.66,6.23,6.23,0,0,1,4-1.65,7.71,7.71,0,0,1,4.28,1.52C85,277.43,86,281,84.32,284.65Z" style="fill:#fff;stroke:#000;stroke-linejoin:round"></path><line x1="76.52" y1="220.65" x2="81.65" y2="223.09" style="fill:#fff;stroke:#000;stroke-linejoin:round"></line><path d="M79.14,229.76a1.77,1.77,0,1,1-1-2.42A1.85,1.85,0,0,1,79.14,229.76Z" style="fill:#fff;stroke:#000;stroke-linejoin:round"></path><line x1="79.14" y1="229.76" x2="75.83" y2="228.57" style="fill:#fff;stroke:#000;stroke-linejoin:round"></line><path d="M83.36,219.3a3.2,3.2,0,0,0-.69-1.6c-.63-.81-1.56-1.49-.93-2.78s10.65-17.15,10.65-17.15l1.18.93" style="fill:#fff;stroke:#000;stroke-linejoin:round"></path></g><g id="freepik--Flashlight--inject-2"><path d="M169.35,59.71c-3.28-8-8.92-13.33-12.6-11.83a3.64,3.64,0,0,0-1.39,1L94.82,92.41l11.88,29.1L168.63,77C172.31,75.48,172.63,67.75,169.35,59.71Z" style="fill:#fff;stroke:#000;stroke-linejoin:round"></path><path d="M164.68,63c-3.28-8-8.93-13.34-12.61-11.84a3.72,3.72,0,0,0-1.39,1.06L90.14,95.73,102,124.84,164,80.31C167.63,78.81,168,71.07,164.68,63Z" style="fill:#fff;stroke:#000;stroke-linejoin:round"></path><path d="M107.92,105.22C103.54,94.48,96,87.4,91.08,89.41a4.71,4.71,0,0,0-1.86,1.41L71,103.76l15.88,38.9L107,128.31C111.88,126.3,112.31,116,107.92,105.22Z" style="fill:#fff;stroke:#000;stroke-linejoin:round"></path><path d="M87.83,119.57c4.38,10.75,4,21.08-1,23.09S74.4,137.59,70,126.85s-4-21.08,1-23.09S83.44,108.83,87.83,119.57Z" style="fill:#fff;stroke:#000;stroke-linejoin:round"></path><ellipse cx="78.92" cy="123.21" rx="8.38" ry="18.3" transform="translate(-40.71 38.97) rotate(-22.21)" style="fill:#fff;stroke:#000;stroke-linejoin:round"></ellipse><rect x="107.73" y="92.96" width="5.74" height="7.89" transform="translate(124.61 -49.47) rotate(54.25)" style="fill:#fff;stroke:#000;stroke-linejoin:round"></rect></g><g id="freepik--Pills--inject-2"><rect x="378.92" y="66.49" width="35.7" height="63.44" transform="translate(373.46 -309.88) rotate(72.83)" style="fill:#fff;stroke:#000;stroke-linejoin:round"></rect><line x1="422.75" y1="90.9" x2="372.02" y2="106.58" style="fill:#fff;stroke:#000;stroke-linejoin:round"></line><rect x="410.01" y="78.63" width="5.34" height="13.2" rx="2.29" transform="translate(704.99 -218.28) rotate(122.25)" style="fill:#fff;stroke:#000;stroke-linejoin:round"></rect><rect x="397.93" y="82.37" width="5.34" height="13.2" rx="2.29" transform="translate(689.65 -202.31) rotate(122.26)" style="fill:#fff;stroke:#000;stroke-linejoin:round"></rect><rect x="385.85" y="86.1" width="5.34" height="13.2" rx="2.29" transform="translate(674.28 -186.37) rotate(122.26)" style="fill:#fff;stroke:#000;stroke-linejoin:round"></rect><rect x="373.77" y="89.83" width="5.34" height="13.2" rx="2.29" transform="translate(658.88 -170.47) rotate(122.25)" style="fill:#fff;stroke:#000;stroke-linejoin:round"></rect><rect x="414.91" y="94.48" width="5.34" height="13.2" rx="2.29" transform="translate(725.96 -198.06) rotate(122.26)" style="fill:#fff;stroke:#000;stroke-linejoin:round"></rect><rect x="402.83" y="98.21" width="5.34" height="13.2" rx="2.29" transform="translate(710.56 -182.15) rotate(122.26)" style="fill:#fff;stroke:#000;stroke-linejoin:round"></rect><rect x="390.75" y="101.95" width="5.34" height="13.2" rx="2.29" transform="translate(695.19 -166.21) rotate(122.26)" style="fill:#fff;stroke:#000;stroke-linejoin:round"></rect><rect x="378.67" y="105.68" width="5.34" height="13.2" rx="2.29" transform="translate(679.82 -150.27) rotate(122.26)" style="fill:#fff;stroke:#000;stroke-linejoin:round"></rect></g><g id="freepik--Ointment--inject-2"><polygon points="398.14 202 391.73 207.88 383.59 196.41 387.43 192.89 398.14 202" style="fill:#fff;stroke:#000;stroke-linejoin:round"></polygon><path d="M395,201.65l-2.86,2.63a6.82,6.82,0,0,0-.37,9.65l44.76,48.27,4.85,8.72L460.23,252l-8.72-4.84-47.2-45.44A6.82,6.82,0,0,0,395,201.65Z" style="fill:#fff;stroke:#000;stroke-linejoin:round"></path><polygon points="429.42 254.57 438.27 244.19 404.46 211.32 396.3 218.86 429.42 254.57" style="fill:#fff;stroke:#000;stroke-linejoin:round"></polygon></g><g id="freepik--Bottle--inject-2"><rect x="402.71" y="393.26" width="24.45" height="48.24" style="fill:#fff;stroke:#263238;stroke-linejoin:round"></rect><rect x="407.23" y="408.09" width="15.4" height="18.58" style="fill:#fff;stroke:#263238;stroke-linejoin:round"></rect><rect x="408.14" y="380.69" width="13.58" height="12.39" style="fill:#fff;stroke:#263238;stroke-linejoin:round"></rect><polygon points="417.08 361.08 412.78 361.08 411.35 380.77 418.52 380.77 417.08 361.08" style="fill:#fff;stroke:#263238;stroke-linejoin:round"></polygon><rect x="408.14" y="386.66" width="13.58" height="6.42" style="fill:#fff;stroke:#263238;stroke-linejoin:round"></rect></g><g id="freepik--Jar--inject-2"><rect x="349.67" y="408.5" width="36.45" height="33" style="fill:#fff;stroke:#263238;stroke-linejoin:round"></rect><rect x="349.67" y="422.14" width="36.45" height="19.36" style="fill:#fff;stroke:#263238;stroke-linejoin:round"></rect><rect x="349.67" y="425.61" width="29.47" height="12.43" style="fill:#fff;stroke:#263238;stroke-linejoin:round"></rect></g><g id="freepik--Bandages--inject-2"><rect x="90.08" y="384.52" width="36.45" height="56.98" style="fill:#fff;stroke:#263238;stroke-linejoin:round"></rect><line x1="108.08" y1="385.07" x2="108.08" y2="441.2" style="fill:none;stroke:#263238;stroke-linejoin:round"></line><rect x="92.88" y="389.88" width="9.61" height="15.2" style="fill:none;stroke:#263238;stroke-linejoin:round"></rect><rect x="94.54" y="392.5" width="6.3" height="9.96" style="fill:none;stroke:#263238;stroke-linejoin:round"></rect><rect x="113.35" y="389.88" width="9.61" height="15.2" style="fill:none;stroke:#263238;stroke-linejoin:round"></rect><rect x="115.01" y="392.5" width="6.3" height="9.96" style="fill:none;stroke:#263238;stroke-linejoin:round"></rect><rect x="102.47" y="393.68" width="10.9" height="7" style="fill:none;stroke:#263238;stroke-linejoin:round"></rect><rect x="92.88" y="415.78" width="9.61" height="15.2" style="fill:none;stroke:#263238;stroke-linejoin:round"></rect><rect x="94.54" y="418.4" width="6.3" height="9.96" style="fill:none;stroke:#263238;stroke-linejoin:round"></rect><rect x="113.35" y="415.78" width="9.61" height="15.2" style="fill:none;stroke:#263238;stroke-linejoin:round"></rect><rect x="115.01" y="418.4" width="6.3" height="9.96" style="fill:none;stroke:#263238;stroke-linejoin:round"></rect><rect x="102.47" y="419.58" width="10.9" height="7" style="fill:none;stroke:#263238;stroke-linejoin:round"></rect></g><g id="freepik--first-aid-kit--inject-2"><rect x="173.58" y="315.87" width="143.06" height="125.64" style="fill:#263238;stroke:#263238;stroke-linejoin:round"></rect><rect x="173.58" y="354.06" width="143.06" height="87.44" style="fill:#BA68C8;stroke:#263238;stroke-linejoin:round"></rect><polygon points="268.42 388.46 254.57 388.46 254.57 374.82 235.65 374.82 235.65 388.46 221.8 388.46 221.8 407.1 235.65 407.1 235.65 420.75 254.57 420.75 254.57 407.1 268.42 407.1 268.42 388.46" style="fill:#fff;stroke:#263238;stroke-linejoin:round"></polygon><rect x="173.86" y="309.17" width="142.57" height="12.65" style="fill:#BA68C8;stroke:#263238;stroke-linejoin:round"></rect></g><g id="freepik--Table--inject-2"><line x1="41.38" y1="441.5" x2="459.48" y2="441.5" style="fill:none;stroke:#263238;stroke-linejoin:round"></line></g></svg>